# xmcd CD database file
#
# Track frame offsets:
#	183
#	28695
#	52470
#	73078
#	88853
#	110620
#	126370
#	138875
#	156270
#	169863
#	185878
#	205395
#	229353
#	244388
#	262758
#
# Disc length: 3938 seconds
#
# Revision: 12
# Processed by: cddbd v1.5.2PL0 Copyright (c) Steve Scherf et al.
# Submitted via: CDex 1.70beta2
#
DISCID=ec0f600f
DTITLE=Taxim Records - More Good Whiskey Blues
DYEAR=1900
DGENRE=Blues
TTITLE0=Metro Blues All Stars - Devil gets his Due
TTITLE1=Tim Wagoner and Wild Blue Yonder - Make it Rain
TTITLE2=Hypnotics - Blues Patrol
TTITLE3=Dean Hall - I Know something 'bout the Blues
TTITLE4=Metro Blues All Stars - Strom Comin' Thru'
TTITLE5=Planet Rockers - Tennessee Woman
TTITLE6=Chip Vandiver - Love ain't never Satisfied
TTITLE7=Dean Hall - My Milkman was Freddy King
TTITLE8=Metro Blues All Stars - I would do for you
TTITLE9=Buddy Flett and the Bluebirds - Blues in a Honkey Tonk Key
TTITLE10=Johnny Neel - While she's in Love
TTITLE11=Metro Blues All Stars - Bad Situation
TTITLE12=Buddy Flett and the Bluebirds - Third House on the left
TTITLE13=Tim Wagoner and Wild Blue Yonder - My Old Friens the Blues
TTITLE14=Lost in Detroit - I Want to make Love to you
EXTD=
EXTT0=
EXTT1=
EXTT2=
EXTT3=
EXTT4=
EXTT5=
EXTT6=
EXTT7=
EXTT8=
EXTT9=
EXTT10=
EXTT11=
EXTT12=
EXTT13=
EXTT14=
PLAYORDER=
